# xmcd
# 
# Track frame offsets:
#   150
#   18556
#   40401
#   60789
#   76948
#   96121
#   113456
#   129870
#   148418
#   166418
#   186369
#   203034
#   218871
#   232760
#   252470
# 
# Disc length: 3577 seconds
# 
# Revision: 1
# Processed by: cddbd v1.5.2PL0 Copyright (c) Steve Scherf et al.
# Submitted via: Synapstar 1.0 
# 
DISCID=c60df70f
DTITLE=Various Artist - Unknown
DYEAR=1900
DGENRE=Country
TTITLE0=Josh Turner - Would You Go With Me
TTITLE1=Garth Brooks and Trisha Yearwood - Love Will Always Win
TTITLE2=Keith Urban - Tonight I Wanna Cry
TTITLE3=Trace Adkins - Swing
TTITLE4=Brad Paisley - The World
TTITLE5=Rascal Flatts - Me and My Gang
TTITLE6=Julie Roberts - Men and Mascara
TTITLE7=Miranda Lambert - New Strings
TTITLE8=Alison Krauss and Union Station - If I Didn't Know Any Better
TTITLE9=Tim McGraw - I Got Friends That Do
TTITLE10=The Wreckers - Leave the Pieces
TTITLE11=Toby Keith - Hell No
TTITLE12=Gretchen Wilson - California Girls
TTITLE13=Toby Keith - A Little Too Late
TTITLE14=Martina McBride - Til I Can Make It on My Own
EXTD=
EXTT0=
EXTT1=
EXTT2=
EXTT3=
EXTT4=
EXTT5=
EXTT6=
EXTT7=
EXTT8=
EXTT9=
EXTT10=
EXTT11=
EXTT12=
EXTT13=
EXTT14=
PLAYORDER=
